<?xml version="1.0" encoding="utf-8"?>
<!-- Generator: Adobe Illustrator 24.3.0, SVG Export Plug-In . SVG Version: 6.00 Build 0)  -->
<svg version="1.1" id="Layer_1" xmlns="http://www.w3.org/2000/svg" xmlns:xlink="http://www.w3.org/1999/xlink" x="0px" y="0px"
	 viewBox="0 0 120 120" style="enable-background:new 0 0 120 120;" xml:space="preserve">
<style type="text/css">
	
		.st0{opacity:0.5;fill:none;stroke:#0C8EFB;stroke-width:3;stroke-linecap:round;stroke-linejoin:round;stroke-miterlimit:10;enable-background:new    ;}
	.st1{fill:#0755E3;}
</style>
<g id="Group_14_1_" transform="translate(16.469 14.4)">
	<path id="Path_3_" class="st0" d="M-1.8,45.6h8.7"/>
	<path id="Path-2_3_" class="st0" d="M11.7,13.8l6.8,6.8"/>
	<path id="Path-3_3_" class="st0" d="M44.1,0.3v8.8"/>
	<path id="Path-4_3_" class="st0" d="M75.8,13.8L69,20.6"/>
	<path id="Path-5_3_" class="st0" d="M89.4,45.6h-8.8"/>
	<path id="Path-6_1_" class="st0" d="M75.8,78L69,71.2"/>
	<path id="Path-7_1_" class="st0" d="M44.1,91.5v-8.8"/>
	<path id="Oval_1_" class="st0" d="M44.1,69.9c13.4,0,24.3-10.9,24.3-24.3c0-13.4-10.9-24.4-24.3-24.4c-13.4,0-24.3,10.9-24.3,24.4
		l0,0"/>
	<path id="UV_1_" class="st1" d="M-0.4,82.6c-1.2-1.3-1.8-3-1.7-4.8V64.3h4v13.5c-0.1,0.8,0.1,1.7,0.5,2.4c0.5,0.5,1.2,0.8,2,0.7
		c0.7,0.1,1.4-0.2,1.9-0.7c0.4-0.7,0.6-1.5,0.6-2.3V64.3h4v13.6c0.1,1.7-0.5,3.4-1.7,4.7c-1.3,1.2-3,1.7-4.8,1.6
		C2.6,84.4,0.9,83.8-0.4,82.6z M18.2,84l-5.7-19.7h4.4l3.3,14.2l3.3-14.2h4.4l-5.7,19.6L18.2,84z"/>
</g>
</svg>
