<?xml version="1.0" encoding="utf-8"?>
<!-- Generator: Adobe Illustrator 24.3.0, SVG Export Plug-In . SVG Version: 6.00 Build 0)  -->
<svg version="1.1" id="Layer_1" xmlns="http://www.w3.org/2000/svg" xmlns:xlink="http://www.w3.org/1999/xlink" x="0px" y="0px"
	 viewBox="0 0 120 120" style="enable-background:new 0 0 120 120;" xml:space="preserve">
<style type="text/css">
	.st0{fill:#0755E3;}
	.st1{opacity:0.5;fill:#0C8EFB;enable-background:new    ;}
	.st2{fill:url(#XMLID_2_);}
	.st3{fill:#FFFFFF;}
</style>
<g>
	<g>
		<path id="XMLID_296_" class="st0" d="M93.4,63c0,4-14.9,7.2-33.2,7.2S27,67,27,63S41.9,59,60.2,59S93.4,59,93.4,63z"/>
		<path id="XMLID_293_" class="st1" d="M60.2,105c3.4,0,31.9-14,31.9-36c0-19.1,0-31.7,0-36.5s-2.6-5.1-5.3-5.8
			c-2.7-0.7-20.9-5.6-26.5-5.6c-5.5,0-23.8,4.9-26.5,5.6c-2.7,0.7-5.4,1-5.4,5.8s0,17.3,0,36.5C28.3,91,56.8,105,60.2,105z"/>
		
			<linearGradient id="XMLID_2_" gradientUnits="userSpaceOnUse" x1="30.5" y1="1575.3572" x2="89.9" y2="1575.3572" gradientTransform="matrix(1 0 0 1 0 -1512.3572)">
			<stop  offset="0" style="stop-color:#FFFFFF"/>
			<stop  offset="1" style="stop-color:#FFFFFF"/>
		</linearGradient>
		<path id="XMLID_285_" class="st2" d="M60.2,103c-1.7-0.3-9.1-3.6-16.2-9.7C37.9,88,30.5,79.7,30.5,69V31.8c0-0.6,0.1-1.8,0.5-2.2
			c0.4-0.3,1.3-0.6,2.3-0.8c0.2-0.1,22.1-5.8,27-5.8s26.7,5.7,26.9,5.8c0.9,0.2,1.8,0.5,2.2,0.8c0.4,0.4,0.5,1.5,0.5,2.2V69
			c0,10.6-7.3,19-13.5,24.2C69.2,99.4,61.9,102.7,60.2,103z"/>
		<path id="XMLID_284_" class="st3" d="M76.1,92.7c-7,5.9-14.2,9.1-15.8,9.5c-1.6-0.3-8.9-3.5-15.9-9.5c-6-5.1-13.2-13.3-13.2-23.7
			v0.3c0,10.4,7.2,18.6,13.2,23.7c7,5.9,14.3,9.1,15.9,9.5c1.6-0.3,8.8-3.5,15.8-9.5c6-5.1,13.2-13.3,13.2-23.7V69
			C89.3,79.4,82.1,87.5,76.1,92.7z"/>
		<g>
			<path class="st0" d="M62.8,42.2h2.5c1.2,0,2-0.3,2.6-0.9c0.6-0.6,0.8-1.3,0.8-2.3c0-0.4-0.1-0.8-0.2-1.2s-0.3-0.7-0.6-0.9
				c-0.3-0.3-0.6-0.5-1-0.6s-0.9-0.2-1.4-0.2c-0.4,0-0.8,0.1-1.2,0.2c-0.4,0.1-0.7,0.3-1,0.5s-0.5,0.5-0.7,0.8s-0.2,0.7-0.2,1.1
				h-4.6c0-0.9,0.2-1.8,0.6-2.6s0.9-1.4,1.6-2c0.7-0.5,1.5-1,2.4-1.3s1.9-0.4,3-0.4c1.2,0,2.2,0.1,3.2,0.4c1,0.3,1.8,0.7,2.5,1.2
				s1.2,1.2,1.6,2s0.6,1.7,0.6,2.8c0,0.5-0.1,1-0.2,1.5c-0.2,0.5-0.4,0.9-0.7,1.4c-0.3,0.4-0.7,0.8-1.1,1.2
				c-0.4,0.4-0.9,0.7-1.5,0.9c1.3,0.5,2.3,1.2,2.9,2.1s1,2,1,3.3c0,1.1-0.2,2-0.6,2.9c-0.4,0.8-1,1.5-1.7,2.1
				c-0.7,0.6-1.6,1-2.6,1.3S66.7,56,65.5,56c-1,0-2-0.1-2.9-0.4c-0.9-0.3-1.8-0.7-2.5-1.2s-1.3-1.2-1.8-2s-0.7-1.8-0.7-2.9h4.6
				c0,0.4,0.1,0.8,0.3,1.2c0.2,0.4,0.4,0.7,0.7,0.9c0.3,0.3,0.7,0.5,1.1,0.6s0.9,0.2,1.4,0.2s1-0.1,1.5-0.2c0.4-0.1,0.8-0.4,1.1-0.6
				c0.3-0.3,0.5-0.6,0.7-1s0.2-0.8,0.2-1.3c0-0.6-0.1-1.1-0.3-1.6c-0.2-0.4-0.4-0.8-0.8-1.1c-0.3-0.3-0.7-0.5-1.2-0.6
				s-1-0.2-1.6-0.2h-2.5C62.8,45.8,62.8,42.2,62.8,42.2z"/>
		</g>
		<g>
			<path class="st0" d="M52.5,43.9h3.2v2.3h-3.2v3.7H50v-3.7h-3.3v-2.3H50v-3.5h2.5V43.9z"/>
		</g>
		<g>
			<path class="st0" d="M53.1,90h-3V93h-1.6v-7.5h5v1.3h-3.4v1.8h3V90z"/>
			<path class="st0" d="M57.2,90.2H56V93h-1.6v-7.5h2.8c0.4,0,0.8,0,1.2,0.1c0.3,0.1,0.6,0.2,0.9,0.4c0.2,0.2,0.4,0.4,0.5,0.7
				s0.2,0.6,0.2,1c0,0.3,0,0.5-0.1,0.7s-0.2,0.4-0.3,0.6s-0.3,0.3-0.4,0.4c-0.2,0.1-0.4,0.2-0.6,0.3l1.6,3.1v0.1h-1.7L57.2,90.2z
				 M55.9,89h1.3c0.2,0,0.4,0,0.5-0.1s0.3-0.1,0.4-0.2c0.1-0.1,0.2-0.2,0.2-0.4c0.1-0.1,0.1-0.3,0.1-0.5c0-0.4-0.1-0.6-0.3-0.8
				c-0.2-0.2-0.5-0.3-0.9-0.3H56L55.9,89L55.9,89z"/>
			<path class="st0" d="M65.7,89.8h-3v2h3.5V93h-5v-7.5h5v1.3h-3.5v1.8h3V89.8z"/>
			<path class="st0" d="M71.6,89.8h-3v2h3.5V93h-5v-7.5h5v1.3h-3.5v1.8h3V89.8z"/>
		</g>
		<g>
			<path class="st0" d="M29.8,24.5l-1.1,0.3l-1.2-4.1l-1.2,0.8l-0.2-0.9l2-1.4h0.1L29.8,24.5z"/>
			<path class="st0" d="M32.6,20.5l0.4-2.7l1.2-0.3l-0.7,3.8l0.5,1.9l-1.1,0.3l-0.5-1.9l-2.7-2.9l1.2-0.3L32.6,20.5z"/>
			<path class="st0" d="M38.9,19.4L36.8,20l0.4,1.4l2.5-0.7l0.2,0.9l-3.6,1l-1.5-5.4l3.6-1l0.2,0.9l-2.5,0.7l0.3,1.3l2.1-0.6
				L38.9,19.4z"/>
			<path class="st0" d="M43.3,19.5L41.4,20l-0.1,1.2l-1.2,0.3l0.6-5.9l1-0.3l3.4,4.8l-1.2,0.3L43.3,19.5z M41.4,19l1.3-0.4l-1.2-1.8
				L41.4,19z"/>
			<path class="st0" d="M47.1,17.7l-0.9,0.2l0.5,2l-1.1,0.3l-1.4-5.4l2-0.5c0.3-0.1,0.6-0.1,0.9-0.1s0.5,0.1,0.7,0.2
				c0.2,0.1,0.4,0.2,0.5,0.4s0.2,0.4,0.3,0.7c0,0.2,0.1,0.4,0.1,0.5c0,0.2,0,0.3-0.1,0.5c-0.1,0.1-0.1,0.3-0.2,0.4
				c-0.1,0.1-0.2,0.2-0.3,0.3l1.7,1.9v0.1l-1.2,0.3L47.1,17.7z M46,17l0.9-0.2c0.1,0,0.3-0.1,0.4-0.2c0.1-0.1,0.2-0.1,0.2-0.2
				c0.1-0.1,0.1-0.2,0.1-0.3s0-0.2,0-0.3c-0.1-0.3-0.2-0.4-0.4-0.5c-0.2-0.1-0.4-0.1-0.7-0.1l-0.9,0.2L46,17z"/>
			<path class="st0" d="M56.2,16l-0.1-4l1.1-0.2v5.7L56,17.7l-1.7-3.5L54.2,18l-1.1,0.2L50.7,13l1.1-0.2l1.6,3.7l0.1-4.1l0.9-0.2
				L56.2,16z"/>
			<path class="st0" d="M61.6,15.8l-2,0.1L59.3,17l-1.2,0.1l1.7-5.7l1.1-0.1l2.4,5.4l-1.2,0.1L61.6,15.8z M59.9,14.9l1.4-0.1l-0.8-2
				L59.9,14.9z"/>
			<path class="st0" d="M65.9,15.5L65,15.3l-0.4,2l-1.1-0.2l1.1-5.4l2,0.4c0.3,0.1,0.6,0.2,0.8,0.3c0.2,0.1,0.4,0.3,0.6,0.4
				c0.1,0.2,0.2,0.4,0.3,0.6c0,0.2,0,0.5,0,0.7s-0.1,0.4-0.2,0.5s-0.2,0.3-0.3,0.4c-0.1,0.1-0.2,0.2-0.4,0.3
				c-0.1,0.1-0.3,0.1-0.5,0.2l0.7,2.5v0.1l-1.2-0.2L65.9,15.5z M65.2,14.5l0.9,0.2c0.1,0,0.3,0,0.4,0s0.2-0.1,0.3-0.1
				c0.1-0.1,0.2-0.1,0.2-0.2c0.1-0.1,0.1-0.2,0.1-0.3c0.1-0.3,0-0.5-0.1-0.7s-0.3-0.3-0.6-0.4l-0.9-0.2L65.2,14.5z"/>
			<path class="st0" d="M70.8,16.8l-0.9-0.2l-0.5,2l-1.1-0.3l1.4-5.4l2,0.5c0.3,0.1,0.6,0.2,0.8,0.3c0.2,0.1,0.4,0.3,0.5,0.5
				c0.1,0.2,0.2,0.4,0.3,0.6c0,0.2,0,0.5,0,0.7c-0.1,0.2-0.1,0.4-0.2,0.5c-0.1,0.1-0.2,0.3-0.3,0.4c-0.1,0.1-0.2,0.2-0.4,0.2
				c-0.2,0.1-0.3,0.1-0.5,0.1l0.6,2.5v0.1l-1.2-0.3L70.8,16.8z M70.2,15.5l0.9,0.2c0.1,0,0.3,0.1,0.4,0c0.1,0,0.2,0,0.3-0.1
				c0.1-0.1,0.2-0.1,0.2-0.2c0.1-0.1,0.1-0.2,0.1-0.3c0.1-0.3,0-0.5-0.1-0.7s-0.3-0.3-0.6-0.4l-0.9-0.2L70.2,15.5z"/>
			<path class="st0" d="M76.5,19.2l-2-0.5l-0.7,1l-1.2-0.3l3.5-4.8l1,0.3l0.5,5.9l-1.1-0.4V19.2z M75.1,17.9l1.3,0.4l-0.1-2.2
				L75.1,17.9z"/>
			<path class="st0" d="M82.5,22.2l-1.1-0.3l-1.1-4.2l-1.1,3.5l-1.1-0.3l1.6-5.3l1.1,0.3l1.1,4.2l1.1-3.5l1.1,0.3L82.5,22.2z"/>
			<path class="st0" d="M88.7,19.2l-1.6-0.5l-1.4,4.4l-1.1-0.3l1.4-4.4L84.4,18l0.3-0.9l4.3,1.3L88.7,19.2z"/>
			<path class="st0" d="M90.8,21.5l1.9-2l1.2,0.4l-2.8,2.8l-0.7,1.9l-1.1-0.4l0.6-1.9l-0.7-3.9l1.2,0.4L90.8,21.5z"/>
		</g>
		<g id="XMLID_124_">
			<g id="XMLID_125_">
				<path id="XMLID_260_" class="st0" d="M50.3,61.5v2.2H49v-2.2L46.9,58h1.2c0.1,0,0.2,0,0.3,0.1c0.1,0.1,0.1,0.1,0.2,0.2l0.8,1.7
					c0.1,0.1,0.1,0.3,0.2,0.4c0.1,0.1,0.1,0.2,0.1,0.3c0-0.1,0.1-0.2,0.1-0.3c0.1-0.1,0.1-0.2,0.2-0.4l0.8-1.7c0,0,0-0.1,0.1-0.1
					l0.1-0.1l0.1-0.1c0,0,0.1,0,0.2,0h1.2L50.3,61.5z"/>
				<path id="XMLID_256_" class="st0" d="M56.5,58v1h-2.4v1.3h1.8v1h-1.8v1.4h2.4v1h-3.7V58L56.5,58L56.5,58z"/>
				<path id="XMLID_156_" class="st0" d="M62.6,63.8h-1c-0.1,0-0.2,0-0.3-0.1c-0.1-0.1-0.1-0.1-0.2-0.2l-0.3-1h-2.2l-0.3,1
					c0,0.1-0.1,0.1-0.2,0.2c-0.1,0.1-0.2,0.1-0.3,0.1h-1L59,58h1.4L62.6,63.8z M58.9,61.5h1.6L60,60c0-0.1-0.1-0.2-0.1-0.4
					c0-0.1-0.1-0.3-0.1-0.4c0,0.2-0.1,0.3-0.1,0.4c0,0.1-0.1,0.3-0.1,0.4L58.9,61.5z"/>
				<path id="XMLID_151_" class="st0" d="M64.4,61.7v2.1h-1.3V58H65c0.4,0,0.8,0,1.1,0.1c0.3,0.1,0.5,0.2,0.7,0.4s0.3,0.3,0.4,0.5
					s0.1,0.4,0.1,0.7c0,0.2,0,0.4-0.1,0.5c0,0.2-0.1,0.3-0.2,0.5c-0.1,0.1-0.2,0.3-0.4,0.4c-0.1,0.1-0.3,0.2-0.5,0.3
					c0.1,0,0.2,0.1,0.3,0.2c0.1,0.1,0.1,0.1,0.2,0.2l1.2,2h-1.2c-0.2,0-0.4-0.1-0.5-0.3l-1-1.7c0-0.1-0.1-0.1-0.1-0.2
					c-0.1,0-0.1,0-0.2,0L64.4,61.7L64.4,61.7z M64.4,60.8h0.5c0.2,0,0.3,0,0.5-0.1c0.1,0,0.2-0.1,0.3-0.2c0.1-0.1,0.1-0.2,0.2-0.3
					c0-0.1,0.1-0.2,0.1-0.4c0-0.3-0.1-0.5-0.2-0.6C65.6,59.1,65.4,59,65,59h-0.5L64.4,60.8L64.4,60.8z"/>
				<path id="XMLID_127_" class="st0" d="M71.5,59.2C71.5,59.2,71.4,59.2,71.5,59.2c-0.1,0.1-0.2,0.1-0.3,0.1c-0.1,0-0.1,0-0.2-0.1
					c-0.1,0-0.1-0.1-0.2-0.1S70.6,59,70.5,59c-0.1,0-0.2-0.1-0.4-0.1c-0.3,0-0.4,0.1-0.6,0.2c-0.1,0.1-0.2,0.3-0.2,0.4
					s0,0.2,0.1,0.3s0.2,0.1,0.3,0.2c0.1,0.1,0.3,0.1,0.4,0.2c0.2,0,0.3,0.1,0.5,0.2c0.2,0.1,0.3,0.1,0.5,0.2
					c0.2,0.1,0.3,0.2,0.4,0.3c0.1,0.1,0.2,0.3,0.3,0.4c0.1,0.2,0.1,0.4,0.1,0.6c0,0.3,0,0.5-0.1,0.7c-0.1,0.2-0.2,0.4-0.4,0.6
					c-0.2,0.2-0.4,0.3-0.6,0.4c-0.3,0.1-0.5,0.1-0.9,0.1c-0.2,0-0.4,0-0.5-0.1c-0.2,0-0.4-0.1-0.5-0.2c-0.2-0.1-0.3-0.1-0.5-0.2
					S68.1,63,68,62.9l0.4-0.6l0.1-0.1c0.1,0,0.1,0,0.2,0s0.2,0,0.2,0.1c0.1,0.1,0.2,0.1,0.3,0.2c0.1,0.1,0.2,0.1,0.3,0.2
					c0.1,0,0.3,0.1,0.5,0.1s0.4-0.1,0.6-0.2c0.1-0.1,0.2-0.3,0.2-0.5c0-0.1,0-0.2-0.1-0.3c-0.2-0.1-0.3-0.1-0.4-0.2
					c-0.1-0.1-0.3-0.1-0.4-0.1c-0.2,0-0.3-0.1-0.5-0.1c-0.2-0.1-0.3-0.1-0.5-0.2c-0.2-0.1-0.3-0.2-0.4-0.3s-0.2-0.3-0.3-0.5
					c-0.1-0.2-0.1-0.4-0.1-0.7c0-0.2,0-0.4,0.1-0.6c0.1-0.2,0.2-0.4,0.4-0.5c0.2-0.2,0.4-0.3,0.6-0.4c0.2-0.1,0.5-0.1,0.8-0.1
					c0.2,0,0.3,0,0.5,0s0.3,0.1,0.5,0.1c0.2,0.1,0.3,0.1,0.4,0.2c0.1,0.1,0.2,0.2,0.3,0.3L71.5,59.2z"/>
			</g>
		</g>
	</g>
	<path id="XMLID_265_" class="st0" d="M27,74c0,4,14.9,7.2,33.2,7.2S93.4,78,93.4,74V62.2c0,4-14.9,7.2-33.2,7.2S27,66.2,27,62.2V74
		z"/>
	<g>
		<path class="st3" d="M36.6,74.2c0-0.1,0-0.2,0-0.3s-0.1-0.2-0.1-0.2c-0.1-0.1-0.2-0.2-0.3-0.3c-0.1-0.1-0.3-0.2-0.5-0.3
			s-0.5-0.3-0.7-0.4c-0.2-0.2-0.4-0.3-0.5-0.5s-0.2-0.4-0.3-0.6c-0.1-0.2-0.1-0.4,0-0.7c0.1-0.2,0.1-0.4,0.3-0.6
			c0.1-0.2,0.3-0.3,0.5-0.4c0.2-0.1,0.5-0.2,0.7-0.2c0.3,0,0.6,0,0.9,0.1s0.6,0.2,0.8,0.3c0.2,0.1,0.4,0.3,0.6,0.5s0.3,0.4,0.3,0.6
			c0.1,0.2,0.1,0.5,0,0.7c-0.4-0.1-0.8-0.1-1.2-0.2c0-0.1,0-0.2,0-0.3S37,71.2,37,71.1c-0.1-0.1-0.2-0.2-0.3-0.2
			c-0.1-0.1-0.2-0.1-0.4-0.1c-0.2,0-0.3,0-0.4,0s-0.2,0-0.3,0.1c-0.1,0-0.2,0.1-0.2,0.2c-0.1,0.1-0.1,0.2-0.1,0.2
			c0,0.2,0,0.4,0.2,0.5c0.2,0.2,0.4,0.3,0.8,0.5c0.3,0.2,0.5,0.3,0.8,0.5c0.2,0.2,0.4,0.3,0.5,0.5s0.2,0.4,0.3,0.6
			c0,0.2,0.1,0.4,0,0.6c0,0.2-0.1,0.5-0.3,0.6c-0.1,0.2-0.3,0.3-0.5,0.4c-0.2,0.1-0.5,0.2-0.7,0.2c-0.3,0-0.6,0-0.9-0.1
			c-0.2,0-0.4-0.1-0.6-0.2c-0.2-0.1-0.4-0.2-0.5-0.3c-0.2-0.1-0.3-0.2-0.4-0.4c-0.1-0.1-0.2-0.3-0.3-0.4c-0.1-0.2-0.1-0.3-0.2-0.5
			c0-0.2,0-0.4,0-0.6c0.4,0.1,0.8,0.2,1.2,0.3c0,0.2,0,0.3,0,0.4c0,0.1,0.1,0.2,0.2,0.3s0.2,0.2,0.3,0.2c0.1,0.1,0.3,0.1,0.5,0.1
			s0.3,0,0.4,0s0.2,0,0.3-0.1C36.5,74.5,36.6,74.4,36.6,74.2C36.6,74.5,36.6,74.4,36.6,74.2z"/>
		<path class="st3" d="M42.3,74.2c-0.8-0.1-1.5-0.2-2.3-0.4c-0.1,0.5-0.2,1-0.2,1.5c0.9,0.2,1.8,0.3,2.7,0.4c0,0.3-0.1,0.6-0.1,0.9
			c-1.3-0.2-2.6-0.4-4-0.6c0.3-1.9,0.7-3.7,1-5.6c1.3,0.2,2.5,0.4,3.8,0.6c0,0.3-0.1,0.6-0.1,0.9c-0.9-0.1-1.8-0.3-2.6-0.4
			c-0.1,0.4-0.1,0.9-0.2,1.3c0.8,0.1,1.5,0.2,2.3,0.4C42.4,73.7,42.3,74,42.3,74.2z"/>
		<path class="st3" d="M45.5,75c-0.3,0-0.6-0.1-1-0.1c-0.1,0.7-0.2,1.4-0.3,2.1C43.8,77,43.4,77,43,76.8c0.3-1.9,0.5-3.7,0.8-5.6
			c0.7,0.1,1.4,0.2,2.1,0.3c0.3,0,0.6,0.1,0.9,0.2c0.3,0.1,0.5,0.2,0.6,0.4c0.2,0.2,0.3,0.4,0.4,0.6s0.1,0.5,0.1,0.7
			s-0.1,0.4-0.1,0.5c-0.1,0.2-0.1,0.3-0.3,0.4c-0.1,0.1-0.2,0.2-0.4,0.3c-0.1,0.1-0.3,0.1-0.5,0.2c0.3,0.8,0.7,1.6,1,2.4
			c0,0,0,0,0,0.1c-0.4,0-0.9-0.1-1.3-0.1C46.1,76.5,45.8,75.8,45.5,75z M44.7,74c0.3,0,0.6,0.1,1,0.1c0.2,0,0.3,0,0.4,0
			s0.2-0.1,0.3-0.1c0.1-0.1,0.2-0.1,0.2-0.2c0.1-0.1,0.1-0.2,0.1-0.3c0-0.3,0-0.5-0.2-0.7c-0.1-0.2-0.4-0.3-0.7-0.3
			c-0.3,0-0.6-0.1-0.9-0.1C44.8,72.9,44.7,73.5,44.7,74z"/>
		<path class="st3" d="M50.6,76.2c0.6-1.4,1.1-2.8,1.6-4.2c0.4,0,0.9,0.1,1.3,0.1c-0.8,1.8-1.5,3.7-2.4,5.5c-0.4,0-0.9-0.1-1.3-0.1
			c-0.5-1.9-1-3.9-1.5-5.8c0.4,0,0.9,0.1,1.3,0.1C50,73.4,50.3,74.8,50.6,76.2z"/>
		<path class="st3" d="M55.1,77.9c-0.4,0-0.8,0-1.2-0.1c0.1-1.9,0.2-3.8,0.3-5.7c0.4,0,0.8,0,1.2,0C55.3,74,55.2,76,55.1,77.9z"/>
		<path class="st3" d="M60.9,76c0,0.3-0.1,0.6-0.2,0.8s-0.3,0.5-0.5,0.6c-0.2,0.2-0.4,0.3-0.7,0.4c-0.3,0.1-0.6,0.1-1,0.1
			s-0.7-0.1-1-0.2c-0.3-0.1-0.6-0.3-0.8-0.6c-0.2-0.2-0.4-0.5-0.5-0.9c-0.1-0.3-0.1-0.7-0.1-1.1c0-0.1,0-0.2,0-0.4
			c0-0.4,0.1-0.8,0.2-1.1s0.3-0.6,0.5-0.8s0.5-0.4,0.8-0.5s0.6-0.2,1-0.2s0.7,0.1,0.9,0.2c0.3,0.1,0.5,0.2,0.7,0.4s0.3,0.4,0.5,0.6
			c0.1,0.2,0.2,0.5,0.2,0.8c-0.4,0-0.8,0-1.2,0c0-0.2,0-0.3-0.1-0.4c0-0.1-0.1-0.2-0.2-0.3s-0.2-0.2-0.3-0.2s-0.3-0.1-0.5-0.1
			c-0.4,0-0.7,0.1-0.9,0.4c-0.2,0.3-0.3,0.7-0.3,1.3c0,0.1,0,0.3,0,0.4c0,0.3,0,0.5,0.1,0.8c0,0.2,0.1,0.4,0.2,0.6
			c0.1,0.1,0.2,0.3,0.4,0.3c0.2,0.1,0.3,0.1,0.6,0.1c0.2,0,0.4,0,0.5-0.1c0.1,0,0.3-0.1,0.4-0.2c0.1-0.1,0.2-0.2,0.2-0.3
			c0.1-0.1,0.1-0.3,0.1-0.4C60.1,76,60.5,76,60.9,76z"/>
		<path class="st3" d="M65.2,75.4c-0.8,0-1.5,0.1-2.3,0.1c0,0.5,0,1,0,1.5c0.9,0,1.8-0.1,2.8-0.1c0,0.3,0,0.6,0,0.9
			c-1.3,0.1-2.7,0.1-4,0.1c0-1.9-0.1-3.8-0.1-5.7c1.3,0,2.5-0.1,3.8-0.1c0,0.3,0,0.6,0,0.9c-0.9,0-1.8,0.1-2.7,0.1
			c0,0.4,0,0.9,0,1.3c0.8,0,1.5-0.1,2.3-0.1C65.2,74.8,65.2,75,65.2,75.4z"/>
		<path class="st3" d="M71.8,76.2c-0.7,0.1-1.4,0.1-2.1,0.2c-0.1,0.4-0.2,0.8-0.3,1.2c-0.4,0-0.9,0.1-1.3,0.1
			c0.6-1.9,1.2-3.9,1.7-5.8c0.4,0,0.7-0.1,1.1-0.1c0.9,1.8,1.8,3.6,2.8,5.4c-0.4,0.1-0.9,0.1-1.3,0.1C72.2,77,72,76.5,71.8,76.2z
			 M69.9,75.4c0.5,0,1-0.1,1.5-0.1c-0.3-0.7-0.6-1.4-0.9-2C70.3,74,70.1,74.7,69.9,75.4z"/>
		<path class="st3" d="M75.1,71.2c0.7,1.3,1.4,2.6,2.1,3.9c0.3-1.4,0.6-2.9,0.8-4.3c0.5-0.1,1-0.2,1.5-0.3c0.3,1.9,0.6,3.7,1,5.6
			c-0.4,0.1-0.8,0.1-1.2,0.2c-0.1-0.5-0.2-1-0.2-1.5c-0.1-0.9-0.2-1.8-0.3-2.7c-0.3,1.5-0.6,2.9-0.9,4.4c-0.3,0-0.6,0.1-0.8,0.1
			c-0.7-1.3-1.4-2.6-2.1-4c0.2,0.9,0.3,1.8,0.5,2.6c0.1,0.5,0.1,1,0.2,1.5c-0.4,0.1-0.8,0.1-1.2,0.2c-0.2-1.9-0.5-3.7-0.7-5.6
			C74,71.4,74.5,71.4,75.1,71.2z"/>
		<path class="st3" d="M85.7,73.2c0,0.3,0,0.6,0,0.8c-0.1,0.3-0.2,0.5-0.3,0.7c-0.2,0.2-0.4,0.4-0.6,0.5c-0.3,0.2-0.6,0.3-0.9,0.3
			c-0.4,0.1-0.7,0.1-1.1,0c-0.3-0.1-0.6-0.2-0.9-0.4s-0.5-0.4-0.6-0.8c-0.2-0.3-0.3-0.7-0.4-1.1c0-0.1,0-0.2-0.1-0.4
			c-0.1-0.4-0.1-0.8,0-1.1c0.1-0.4,0.2-0.7,0.3-0.9c0.2-0.3,0.4-0.5,0.6-0.7c0.3-0.2,0.6-0.3,0.9-0.4c0.3-0.1,0.7-0.1,1,0
			c0.3,0,0.5,0.1,0.8,0.3c0.2,0.1,0.4,0.3,0.6,0.5s0.3,0.5,0.4,0.7c-0.4,0.1-0.8,0.2-1.2,0.3c0-0.2-0.1-0.3-0.2-0.4
			c-0.1-0.1-0.2-0.2-0.3-0.3c-0.1-0.1-0.2-0.1-0.4-0.1c-0.1,0-0.3,0-0.5,0c-0.4,0.1-0.7,0.3-0.8,0.6s-0.2,0.8,0,1.4
			c0,0.1,0,0.2,0.1,0.4c0.1,0.3,0.1,0.5,0.2,0.7c0.1,0.2,0.2,0.4,0.3,0.5s0.3,0.2,0.4,0.3c0.2,0,0.4,0,0.6,0s0.3-0.1,0.5-0.2
			c0.1-0.1,0.2-0.2,0.3-0.3c0.1-0.1,0.1-0.2,0.1-0.4c0-0.1,0-0.3,0-0.5C84.9,73.4,85.3,73.2,85.7,73.2z"/>
	</g>
</g>
</svg>
