<?xml version="1.0" encoding="utf-8"?>
<!-- Generator: Adobe Illustrator 24.3.0, SVG Export Plug-In . SVG Version: 6.00 Build 0)  -->
<svg version="1.1" id="Layer_1" xmlns="http://www.w3.org/2000/svg" xmlns:xlink="http://www.w3.org/1999/xlink" x="0px" y="0px"
	 viewBox="0 0 120 120" style="enable-background:new 0 0 120 120;" xml:space="preserve">
<style type="text/css">
	.st0{opacity:0.5;fill:#0C8EFB;stroke:#0C8EFB;stroke-miterlimit:10;enable-background:new    ;}
	.st1{fill:none;stroke:#0755E3;stroke-width:3;stroke-linecap:round;stroke-linejoin:round;stroke-miterlimit:10;}
	.st2{fill:#0755E3;}
</style>
<g>
	<path class="st0" d="M86,101.7H65.7V87.8c0-5.5,2.2-10.7,6.1-14.6c1.9-1.9,5-5,8-8.1c2.9-3,5.8-5.9,7.4-7.5c1.9-1.9,4.8-2,6.9-0.4
		V39.3c0-1.6,0.7-3,1.9-4s2.8-1.4,4.4-1.1c2.4,0.5,4.2,2.7,4.2,5.3v28c0,2-0.8,3.9-2.1,5.4L86.1,90.4L86,101.7z M67.7,99.7h16.2
		V89.5l16.9-18.1c1-1.1,1.6-2.5,1.6-4v-28c0-1.6-1.1-3-2.5-3.3c-1-0.2-1.9,0-2.7,0.7c-0.7,0.6-1.2,1.5-1.2,2.5v22.2
		c0,0.1,0,0.2-0.1,0.3c-0.1,1.2-0.7,2.2-1.5,3.1L83.9,75.2c-0.4,0.4-1,0.4-1.4,0s-0.4-1,0-1.4L93,63.5c0.6-0.6,1-1.4,1-2.3
		c0-0.9-0.3-1.7-1-2.3c-1.2-1.2-3.2-1.2-4.4,0c-1.7,1.7-4.5,4.6-7.4,7.5c-3,3.1-6.1,6.2-8,8.1c-3.5,3.5-5.5,8.2-5.5,13.2
		C67.7,87.8,67.7,99.7,67.7,99.7z M54.2,101.7H33.9V90.3L17.5,72.8c-1.4-1.5-2.1-3.4-2.1-5.4v-28c0-2.6,1.8-4.8,4.2-5.3
		c1.6-0.3,3.2,0.1,4.4,1.1s1.9,2.5,1.9,4V57c2-1.6,5-1.4,6.9,0.4c1.7,1.7,4.5,4.6,7.4,7.5c3,3.1,6.1,6.2,8,8.1
		c3.9,3.9,6.1,9.1,6.1,14.6C54.2,87.8,54.2,101.7,54.2,101.7z M36,99.7h16.2V87.8c0-5-1.9-9.7-5.5-13.2c-1.9-1.9-5-5-8-8.1
		c-2.9-3-5.7-5.8-7.4-7.5c-1.2-1.2-3.2-1.2-4.4,0c-0.6,0.6-1,1.4-1,2.3c0,0.9,0.3,1.7,1,2.3l10.5,10.3c0.4,0.4,0.4,1,0,1.4
		s-1,0.4-1.4,0L25.5,65c-0.9-0.8-1.4-1.9-1.5-3.1c0-0.1-0.1-0.2-0.1-0.3V39.3c0-1-0.4-1.9-1.2-2.5c-0.8-0.6-1.7-0.9-2.7-0.7
		c-1.5,0.3-2.5,1.7-2.5,3.3v28c0,1.5,0.6,2.9,1.6,4L36,89.5V99.7z"/>
	<path class="st1" d="M59.9,60.1c-8,0-14.6-6.5-14.6-14.6c0-7.7,13.2-26,13.8-26.8c0.4-0.5,1.3-0.5,1.6,0
		c0.6,0.8,13.8,19.1,13.8,26.8C74.5,53.5,67.9,60.1,59.9,60.1z"/>
	<path class="st2" d="M68.9,45.5c0-0.6-0.5-1-1-1c-0.6,0-1,0.5-1,1c0,3.9-3.1,7-7,7c-0.6,0-1,0.5-1,1s0.5,1,1,1
		C64.9,54.5,68.9,50.5,68.9,45.5z"/>
</g>
</svg>
