<?xml version="1.0" encoding="utf-8"?>
<!-- Generator: Adobe Illustrator 24.3.0, SVG Export Plug-In . SVG Version: 6.00 Build 0)  -->
<svg version="1.1" id="Layer_1" xmlns="http://www.w3.org/2000/svg" xmlns:xlink="http://www.w3.org/1999/xlink" x="0px" y="0px"
	 viewBox="0 0 120 120" style="enable-background:new 0 0 120 120;" xml:space="preserve">
<style type="text/css">
	.st0{opacity:0.5;}
	.st1{fill:none;stroke:#0C8EFB;stroke-width:3;stroke-linecap:round;stroke-linejoin:round;stroke-miterlimit:10;}
	.st2{enable-background:new    ;}
	.st3{fill:#0755E3;}
</style>
<g id="sun_1_" transform="translate(14.835 14.628)">
	<g id="Group_20_1_" transform="translate(0 0)" class="st0">
		<g id="Group_6_1_" transform="translate(49.51 34.238) rotate(70)">
			<path id="Path_2_" class="st1" d="M0.8,11.5c0-6.2,5.1-11.3,11.4-11.3c4.3,0,8.2,2.4,10.1,6.2"/>
			<path id="Path-2_2_" class="st1" d="M23.5,11.5c0,6.3-5.1,11.3-11.3,11.3c-4.3,0-8.2-2.4-10.1-6.2"/>
			<path id="Path-3_2_" class="st1" d="M23.2-0.2l-0.9,6.7l-6.7-0.9"/>
			<path id="Path-4_2_" class="st1" d="M1,23.3l0.9-6.7l6.7,0.9"/>
		</g>
		<path id="Path_9_1_" class="st1" d="M0.6,34.8h18.6V21.7h11.7V0.8"/>
		<path id="Path_12_1_" class="st1" d="M54.3,0.8v20.7H66v19.8h24.2"/>
		<path id="Path_13_1_" class="st1" d="M46,90.6h20V65.1h24.2"/>
		<g id="Group_4_1_" transform="translate(0.807 42.897)">
			<path id="Path_11_1_" class="st1" d="M4.7,0.8L7.9,4L4.7,7"/>
			<path id="Path_10_1_" class="st1" d="M0.6,4h6.5"/>
		</g>
		<g id="Group_4-2_1_" transform="translate(82.322 48.972)">
			<path id="Path_11-2_1_" class="st1" d="M4.7,0.8L7.9,4L4.7,7"/>
			<path id="Path_10-2_1_" class="st1" d="M0.6,4h6.5"/>
		</g>
		<g id="Group_4-3_1_" transform="translate(39.143 8.291) rotate(-90)">
			<path id="Path_11-3_1_" class="st1" d="M3.3,0.6l3.2,3.2l-3.2,3"/>
			<path id="Path_10-3_1_" class="st1" d="M-0.8,3.8h6.5"/>
		</g>
		<path id="Path-5_2_" class="st1" d="M0.6,57.4h17"/>
	</g>
	<g class="st2">
		<path class="st3" d="M15.5,89.3L11.9,82H9.3v7.3H5.8V71.1H13c3.7,0,5.9,2.5,5.9,5.6c0,2.6-1.6,4.2-3.3,4.8l4.1,7.9L15.5,89.3
			C15.5,89.4,15.5,89.3,15.5,89.3z M12.7,74.2H9.3V79h3.4c1.6,0,2.6-1,2.6-2.4C15.3,75.2,14.3,74.2,12.7,74.2z"/>
	</g>
	<g class="st2">
		<path class="st3" d="M32.8,87.5c-1.2,1.2-2.8,1.9-4.9,1.9s-3.7-0.7-4.9-1.9c-1.8-1.8-1.8-3.9-1.8-7.4s0-5.5,1.8-7.4
			c1.2-1.2,2.8-1.9,4.9-1.9s3.6,0.7,4.9,1.9c1.8,1.8,1.9,3.9,1.9,7.4C34.7,83.7,34.6,85.7,32.8,87.5z M30.2,75.1
			c-0.5-0.6-1.3-1-2.3-1s-1.8,0.4-2.3,1c-0.7,0.8-0.9,1.6-0.9,5.1s0.2,4.3,0.9,5.1c0.5,0.6,1.3,1,2.3,1s1.8-0.4,2.3-1
			c0.7-0.8,0.9-1.6,0.9-5.1S30.9,75.8,30.2,75.1z"/>
	</g>
</g>
</svg>
